<svg width="153" height="52" viewBox="0 0 153 52" fill="none" xmlns="http://www.w3.org/2000/svg">
    <path d="M110.828 27.9126C108.914 27.9126 106.997 27.9126 105.082 27.9126C104.406 27.9126 104.29 28.0876 104.593 28.6961C105.184 29.8824 106.211 30.4847 107.461 30.7493C109.54 31.1888 111.502 30.8754 113.317 29.7583C113.59 29.5894 113.734 29.6565 113.917 29.86C114.695 30.733 115.466 31.608 116.268 32.4586C116.52 32.7251 116.453 32.8594 116.215 33.0629C115.081 34.0315 113.754 34.6135 112.328 34.9635C110.24 35.4763 108.124 35.5475 106.03 35.0653C101.706 34.0722 99.2905 31.0911 99.1094 26.649C99.0036 24.0606 99.5998 21.7083 101.391 19.7527C102.713 18.308 104.394 17.5205 106.288 17.1725C107.904 16.8754 109.532 16.908 111.136 17.2702C114.644 18.0617 116.964 20.5402 117.318 24.2173C117.421 25.2897 117.356 26.3458 117.293 27.41C117.269 27.817 117.112 27.9208 116.73 27.9187C114.764 27.9045 112.796 27.9126 110.83 27.9106L110.828 27.9126ZM108.49 24.1847C109.695 24.1847 110.898 24.1664 112.1 24.1969C112.574 24.2091 112.615 24.0097 112.507 23.6455C112.359 23.1449 112.094 22.7155 111.677 22.396C110.356 21.3847 108.846 21.2301 107.282 21.5353C106.018 21.7815 105.055 22.4917 104.512 23.7024C104.361 24.0382 104.41 24.1949 104.825 24.1908C106.046 24.1745 107.267 24.1847 108.486 24.1847H108.49Z" fill="black"/>
    <path d="M17.6865 1.59329C17.7211 5.03836 19.115 7.7529 22.0961 9.53749C24.0801 10.7259 26.2289 11.1084 28.5345 10.5916C31.4728 9.9343 33.5321 8.21278 34.8365 5.55115C35.5202 4.15522 35.7095 2.64736 35.6851 1.10288C35.6688 0.0243943 35.5243 -0.16892 36.7798 0.337767C38.2449 0.929919 39.6307 1.66858 41.0002 2.44388C41.3644 2.6494 41.5008 2.89359 41.4479 3.34737C40.8537 8.46307 38.247 12.2561 33.8476 14.8221C32.0487 15.8721 30.0627 16.4236 27.9647 16.5925C24.2653 16.8916 20.8955 15.9962 17.9123 13.823C15.1327 11.7983 13.2382 9.11424 12.3327 5.76074C12.1068 4.9244 11.9745 4.07382 11.8463 3.2212C11.7873 2.8244 11.9074 2.54969 12.2696 2.3401C13.7693 1.4773 15.3097 0.706082 16.9376 0.115964C17.5807 -0.118048 17.6844 -0.0366523 17.6885 0.624686C17.6885 0.946198 17.6885 1.26771 17.6885 1.59126L17.6865 1.59329Z" fill="#6B5AED"/>
    <path d="M17.6974 25.6924C17.7401 26.7831 17.5854 27.8535 17.3535 28.9157C17.0442 30.3279 16.5232 31.6628 15.811 32.9203C14.6226 35.0224 13.009 36.7337 11.0005 38.0625C9.59443 38.9925 8.06623 39.664 6.42204 40.0689C5.61419 40.2683 4.79006 40.3375 3.96796 40.4433C3.23744 40.5369 2.84267 40.2358 2.53133 39.6477C1.82116 38.2986 1.14761 36.9352 0.616503 35.5047C0.588014 35.4253 0.557491 35.3459 0.535107 35.2645C0.429293 34.8698 0.524933 34.652 0.992957 34.6663C1.67057 34.6887 2.35023 34.6988 3.02784 34.6663C6.60111 34.4831 9.30547 32.8715 10.9069 29.6442C12.5593 26.311 12.1625 23.0695 9.9546 20.1474C8.28193 17.9334 5.95401 16.7511 3.12348 16.7023C2.44587 16.6901 1.76621 16.6921 1.0886 16.7043C0.66534 16.7125 0.57784 16.509 0.720282 16.161C1.42639 14.4537 2.20575 12.7831 3.21505 11.2284C3.36564 10.9985 3.57319 10.9619 3.82349 10.9456C4.84093 10.8744 5.81157 11.147 6.77204 11.3933C8.45693 11.8247 10.0156 12.5796 11.4299 13.593C13.2572 14.9035 14.7407 16.5334 15.8415 18.5032C17.0482 20.6601 17.6343 22.982 17.7055 25.4442C17.7075 25.5276 17.6953 25.6131 17.6892 25.6965L17.6974 25.6924Z" fill="#6B5AED"/>
    <path d="M142.864 17.1174C145.379 17.0645 147.595 17.7502 149.488 19.3598C150.975 20.6235 151.862 22.2555 152.259 24.1459C152.745 26.4596 152.522 28.7142 151.388 30.8061C150.031 33.3151 147.839 34.6785 145.066 35.1709C143.287 35.4863 141.515 35.4558 139.777 34.9817C136.916 34.2043 134.838 32.4869 133.833 29.6523C132.533 25.9834 133.343 21.3723 136.839 18.8837C138.654 17.5915 140.697 17.036 142.866 17.1174H142.864ZM147.231 26.1767C147.253 25.6354 147.123 25.0168 146.901 24.4023C145.888 21.5921 142.53 21.1302 140.546 22.3064C138.705 23.3991 138.06 25.8715 138.739 27.9084C139.665 30.6881 142.426 31.2517 144.626 30.4683C146.323 29.8639 147.225 28.3317 147.231 26.1767Z" fill="black"/>
    <path d="M35.7063 49.9544C35.7897 47.2216 34.8985 44.7899 32.8249 42.873C30.6272 40.8402 28.0267 40.0547 25.0516 40.5777C22.7075 40.9908 20.8333 42.1832 19.3987 44.0472C18.8025 44.8224 18.3833 45.7076 18.0638 46.6538C17.5592 48.1515 17.6223 49.6858 17.5999 51.2201C17.5897 51.9486 17.5063 52.0076 16.8368 51.7655C15.2231 51.1835 13.7051 50.4123 12.24 49.5271C11.9327 49.3419 11.7964 49.1079 11.8188 48.7396C12.0162 45.3841 13.1862 42.3928 15.3371 39.8329C17.0871 37.7471 19.3031 36.2596 21.8996 35.4009C24.6447 34.4913 27.4487 34.3367 30.2508 35.0713C34.4345 36.1681 37.611 38.6099 39.6906 42.4254C40.7427 44.3544 41.3511 46.4097 41.4162 48.6216C41.4284 49.0652 41.2351 49.3297 40.8973 49.5271C39.422 50.3879 37.8938 51.1448 36.2944 51.7512C35.8284 51.9283 35.7206 51.855 35.7104 51.3524C35.7002 50.9129 35.7104 50.4713 35.7104 49.9565L35.7063 49.9544Z" fill="#6B5AED"/>
    <path d="M35.7077 25.951C35.7261 21.4966 37.2624 17.9335 40.2293 15.0379C42.3293 12.9887 44.8505 11.6396 47.7909 11.1472C48.2569 11.0698 48.7127 10.962 49.1868 10.9416C49.5124 10.9274 49.7505 11.0393 49.9174 11.3038C50.8676 12.8137 51.645 14.4091 52.3022 16.0655C52.4752 16.505 52.3368 16.6698 51.822 16.6861C50.9409 16.7105 50.0598 16.6637 49.1828 16.7858C46.9505 17.0951 45.1211 18.1573 43.6764 19.8463C42.0851 21.7042 41.3484 23.8957 41.5621 26.3356C41.8612 29.7399 43.5889 32.2164 46.6351 33.7731C48.2243 34.585 49.9296 34.7254 51.6755 34.6786C52.7153 34.6501 52.7458 34.7274 52.3694 35.692C51.7833 37.1917 51.1057 38.6446 50.2918 40.0365C50.1208 40.3274 49.9357 40.4434 49.6081 40.4312C47.2191 40.3417 45.0092 39.6397 42.9865 38.4045C39.2891 36.1478 36.9409 32.9042 36.0231 28.6513C35.9662 28.3867 35.8726 28.1263 35.8502 27.8597C35.7891 27.1353 35.6833 26.4108 35.7118 25.953L35.7077 25.951Z" fill="#6B5AED"/>
    <path d="M59.8229 26.2298C59.8229 23.5173 59.833 20.8048 59.8127 18.0943C59.8086 17.6161 59.9165 17.4309 60.4333 17.4472C61.6197 17.4838 62.806 17.4716 63.9924 17.4513C64.381 17.4452 64.5499 17.5713 64.5519 17.9681C64.554 18.2876 64.615 18.6091 64.6578 18.9266C64.674 19.0548 64.6435 19.2176 64.8104 19.2705C64.9732 19.3213 65.0525 19.1728 65.138 19.0812C65.7607 18.4179 66.481 17.8949 67.3235 17.5469C69.1243 16.8042 70.9802 16.8815 72.8156 17.3027C74.0569 17.5876 75.1354 18.251 75.9392 19.2745C76.7959 20.3673 77.2354 21.6472 77.4653 22.9984C77.6261 23.9344 77.6546 24.8847 77.6526 25.835C77.6505 28.751 77.6505 31.665 77.6668 34.581C77.6668 34.9127 77.5447 34.992 77.2578 34.992C75.8008 34.9879 74.3418 34.9798 72.8848 34.9961C72.4717 35.0002 72.4758 34.7682 72.4758 34.4711C72.4819 31.6568 72.4758 28.8426 72.4799 26.0304C72.4799 25.2958 72.4025 24.5754 72.1848 23.8734C71.902 22.9597 71.3444 22.2841 70.4348 21.9606C67.9726 21.0856 65.6589 22.3574 65.079 24.8644C64.9711 25.3283 64.9406 25.8004 64.9406 26.2786C64.9447 28.9911 64.9345 31.7036 64.9549 34.4141C64.9589 34.8618 64.8307 35.0042 64.3831 34.9961C63.0441 34.9717 61.7051 34.9696 60.3662 34.9961C59.9043 35.0063 59.8066 34.8455 59.8086 34.41C59.829 31.6813 59.8188 28.9525 59.8188 26.2237L59.8229 26.2298Z" fill="black"/>
    <path d="M19.9538 25.8615C19.787 22.4123 22.8169 19.01 27.0556 19.187C30.5454 19.3315 33.5489 22.2902 33.496 25.8615C33.4411 29.5487 30.5556 32.4281 26.728 32.4626C22.8637 32.4972 19.8297 29.3655 19.9518 25.8615H19.9538Z" fill="#6B5AED"/>
    <path d="M119.61 26.246C119.61 23.5335 119.62 20.823 119.6 18.1105C119.596 17.6222 119.738 17.4695 120.233 17.4838C121.451 17.5143 122.672 17.498 123.893 17.4716C124.249 17.4634 124.431 17.5835 124.498 17.9233C124.555 18.2224 124.626 18.5195 124.697 18.8146C124.724 18.9245 124.705 19.073 124.844 19.1137C124.984 19.1544 125.047 19.0222 125.12 18.9367C125.741 18.2123 126.486 17.6445 127.401 17.3861C129.589 16.7655 131.656 16.9771 133.51 18.4097C133.736 18.5847 133.756 18.7861 133.624 19.0344C133.028 20.1536 132.434 21.2768 131.85 22.4021C131.691 22.7073 131.526 22.689 131.251 22.5323C129.778 21.6899 128.258 21.5922 126.742 22.3879C125.419 23.0818 124.795 24.26 124.776 25.7149C124.74 28.6126 124.752 31.5103 124.776 34.4079C124.781 34.8861 124.636 35.0062 124.18 34.9981C122.825 34.9736 121.468 34.9777 120.113 34.9981C119.716 35.0042 119.596 34.8902 119.6 34.4812C119.618 31.7361 119.61 28.9911 119.61 26.244V26.246Z" fill="black"/>
    <path d="M91.2615 27.8027C89.3466 27.8027 87.4298 27.8027 85.5149 27.8027C84.7519 27.8027 84.6725 27.9269 84.9777 28.635C85.4071 29.6301 86.1783 30.3016 87.1734 30.621C89.3955 31.3333 91.5809 31.2071 93.6423 30.0391C94.0961 29.7827 94.3423 29.86 94.6597 30.2426C95.262 30.971 95.9132 31.6629 96.5644 32.3487C96.8757 32.6783 96.8432 32.8899 96.4809 33.1606C94.9059 34.3388 93.1234 34.8902 91.1882 35.1507C89.7862 35.34 88.4248 35.2687 87.0513 35.0306C83.9359 34.4914 81.6609 32.8676 80.4704 29.8844C79.9251 28.517 79.7928 27.0803 79.8356 25.6091C79.8763 24.2274 80.1876 22.9292 80.792 21.7001C81.8033 19.6408 83.4597 18.3263 85.6248 17.6385C87.4359 17.0646 89.2835 17.0626 91.1475 17.3332C92.7836 17.5713 94.2405 18.2164 95.4554 19.3233C96.3812 20.1658 97.0039 21.2321 97.3844 22.4347C97.9054 24.083 97.9115 25.7597 97.7141 27.4568C97.6693 27.8455 97.4129 27.8007 97.1626 27.8007C95.1969 27.8007 93.2292 27.8007 91.2635 27.8007L91.2615 27.8027ZM89.0495 24.1888C90.2501 24.1888 91.4527 24.1888 92.6533 24.1888C93.1478 24.1888 93.217 24.0911 93.0623 23.6109C92.9362 23.2222 92.749 22.8661 92.4458 22.5771C91.3225 21.5027 89.9225 21.3216 88.4777 21.4356C86.9678 21.5536 85.7754 22.2516 85.0856 23.6658C84.8923 24.0646 84.9533 24.1847 85.3949 24.1867C86.6138 24.1928 87.8306 24.1888 89.0495 24.1908V24.1888Z" fill="black"/>
</svg>
